Coordinates
version=1
nRows=26
nColumns=27
inDegrees=yes

Units are S.I. units (second, meters, Newtons, ...)
If the header above contains a line with 'inDegrees', this indicates whether rotational values are in degrees (yes) or radians (no).

endheader
time	pelvis_rotation	pelvis_tilt	pelvis_list	pelvis_tx	pelvis_ty	pelvis_tz	hip_flexion_r	hip_adduction_r	hip_rotation_r	knee_angle_r	knee_rotation_r	knee_adduction_r	knee_angle_r_beta	ankle_angle_r	subtalar_angle_r	mtp_angle_r	hip_flexion_l	hip_adduction_l	hip_rotation_l	knee_angle_l	knee_rotation_l	knee_adduction_l	knee_angle_l_beta	ankle_angle_l	subtalar_angle_l	mtp_angle_l
      4.26000000	     13.74789967	    -44.22369351	      8.04843029	     -0.08710359	      0.54533644	     -1.17685720	    130.96786759	    -46.76441541	     15.81424216	     95.12217860	      0.00000000	      9.64531533	      1.66019521	     11.36949530	      0.00000000	      0.00000000	    123.50060984	    -25.49393720	      5.02063874	     87.43591352	      0.00000000	     -9.88543926	      1.52604458	      3.28839026	      0.00000000	      0.00000000
      4.26500000	     12.87608539	    -44.19715187	      7.93392431	     -0.08803998	      0.54681176	     -1.17674935	    130.48585995	    -45.69329053	     15.59895423	     94.78696901	      0.00000000	      9.33103066	      1.65434470	     11.21429480	      0.00000000	      0.00000000	    123.13121472	    -26.30577600	      4.80011306	     87.19477071	      0.00000000	     -9.78372336	      1.52183584	      3.20213794	      0.00000000	      0.00000000
      4.27000000	     13.77589831	    -44.31339506	      8.11858812	     -0.08827110	      0.54786059	     -1.17735826	    130.66873523	    -46.73597240	     15.50061526	     94.63842433	      0.00000000	      9.62933106	      1.65175210	     11.17662830	      0.00000000	      0.00000000	    123.20311022	    -25.31328271	      4.81245679	     87.00240480	      0.00000000	     -9.88300118	      1.51847842	      3.19491866	      0.00000000	      0.00000000
      4.27500000	     13.78202349	    -44.35176599	      8.11520039	     -0.08883084	      0.54915204	     -1.17760470	    130.46126829	    -46.74261282	     15.28391935	     94.38600792	      0.00000000	      9.62072205	      1.64734661	     11.11038789	      0.00000000	      0.00000000	    123.06375886	    -25.21246192	      4.73547898	     86.78647934	      0.00000000	     -9.88201461	      1.51470981	      3.13192174	      0.00000000	      0.00000000
      4.28000000	     13.80268350	    -44.39987619	      8.16168148	     -0.08941842	      0.55044942	     -1.17781355	    130.31498321	    -46.71630974	     15.13709363	     94.13980791	      0.00000000	      9.61226275	      1.64304961	     11.01078173	      0.00000000	      0.00000000	    122.90056164	    -25.12519414	      4.62098840	     86.54701161	      0.00000000	     -9.88069343	      1.51053031	      3.09421536	      0.00000000	      0.00000000
      4.28500000	     13.84946799	    -44.47061619	      8.22904363	     -0.08997540	      0.55158618	     -1.17804539	    130.24744991	    -46.70978477	     15.03323345	     93.92451838	      0.00000000	      9.60485112	      1.63929209	     10.90855757	      0.00000000	      0.00000000	    122.79190426	    -25.02630603	      4.51279704	     86.35121650	      0.00000000	     -9.87929035	      1.50711304	      3.07889563	      0.00000000	      0.00000000
      4.29000000	     13.00551184	    -44.45606709	      8.10645049	     -0.09088194	      0.55300791	     -1.17787719	    129.79242266	    -45.66376507	     14.83797857	     93.59611433	      0.00000000	      9.26638851	      1.63356036	     10.77588584	      0.00000000	      0.00000000	    122.44486472	    -25.81433092	      4.29344809	     86.10860726	      0.00000000	     -9.77247051	      1.50287871	      2.99042639	      0.00000000	      0.00000000
      4.29500000	     13.82013213	    -44.66898978	      8.31289509	     -0.09115490	      0.55403753	     -1.17836987	    130.04697151	    -46.53851034	     14.74330882	     93.45164827	      0.00000000	      9.58466660	      1.63103895	     10.77433981	      0.00000000	      0.00000000	    122.60703458	    -24.96252102	      4.28552713	     85.91287912	      0.00000000	     -9.87711046	      1.49946261	      2.96862442	      0.00000000	      0.00000000
      4.30000000	     13.89545965	    -44.57073015	      8.28166203	     -0.09159292	      0.55518900	     -1.17859959	    129.72038656	    -46.68010306	     14.52135862	     93.22726325	      0.00000000	      9.58039837	      1.62712270	     10.70021971	      0.00000000	      0.00000000	    122.36281534	    -24.76731535	      4.25110075	     85.70833409	      0.00000000	     -9.87579138	      1.49589263	      2.94064130	      0.00000000	      0.00000000
      4.30500000	     13.05446664	    -44.54191732	      8.18301442	     -0.09247807	      0.55651987	     -1.17838562	    129.29942770	    -45.60250844	     14.40023959	     92.91873566	      0.00000000	      9.22491781	      1.62173787	     10.55544827	      0.00000000	      0.00000000	    121.99556718	    -25.57089717	      4.00715852	     85.47231866	      0.00000000	     -9.76650565	      1.49177338	      2.85556406	      0.00000000	      0.00000000
      4.31000000	     14.02769991	    -44.66235570	      8.36348775	     -0.09262778	      0.55743937	     -1.17891997	    129.47214454	    -46.72916364	     14.24872929	     92.79984645	      0.00000000	      9.56459438	      1.61966287	     10.55217206	      0.00000000	      0.00000000	    122.12486669	    -24.51810843	      4.08108446	     85.28516753	      0.00000000	     -9.87345535	      1.48850698	      2.83279868	      0.00000000	      0.00000000
      4.31500000	     14.02270394	    -44.65501637	      8.39853345	     -0.09310287	      0.55856883	     -1.17902196	    129.28127456	    -46.67659078	     14.11908604	     92.58713071	      0.00000000	      9.55564355	      1.61595028	     10.49165668	      0.00000000	      0.00000000	    121.92803519	    -24.48094131	      3.96245043	     85.07651416	      0.00000000	     -9.87251618	      1.48486529	      2.79491524	      0.00000000	      0.00000000
      4.32000000	     14.04935317	    -44.68923412	      8.41228277	     -0.09357261	      0.55963129	     -1.17912945	    129.12594244	    -46.66824229	     13.97146873	     92.38522509	      0.00000000	      9.54773654	      1.61242636	     10.42064185	      0.00000000	      0.00000000	    121.81264771	    -24.39709457	      3.89417609	     84.87751445	      0.00000000	     -9.87166648	      1.48139209	      2.74385766	      0.00000000	      0.00000000
      4.32500000	     14.09571609	    -44.71284733	      8.43659172	     -0.09400805	      0.56068814	     -1.17923521	    128.96374791	    -46.68201494	     13.82625321	     92.18564074	      0.00000000	      9.53907464	      1.60894295	     10.36826269	      0.00000000	      0.00000000	    121.68152845	    -24.29796145	      3.82147347	     84.67534028	      0.00000000	     -9.87056328	      1.47786348	      2.68310078	      0.00000000	      0.00000000
      4.33000000	     13.27900656	    -44.66092512	      8.33241849	     -0.09479370	      0.56190691	     -1.17893967	    128.54636422	    -45.63607613	     13.73772202	     91.90176494	      0.00000000	      9.16250747	      1.60398839	     10.22866892	      0.00000000	      0.00000000	    121.30447081	    -25.08418479	      3.58358370	     84.44937423	      0.00000000	     -9.75667970	      1.47391963	      2.60761723	      0.00000000	      0.00000000
      4.33500000	     14.10084131	    -44.74951657	      8.52082690	     -0.09485893	      0.56270382	     -1.17936296	    128.68827668	    -46.56086745	     13.62939321	     91.81252408	      0.00000000	      9.51978383	      1.60243084	     10.25314665	      0.00000000	      0.00000000	    121.38346569	    -24.23625484	      3.60454048	     84.29097238	      0.00000000	     -9.86892458	      1.47115500	      2.60276135	      0.00000000	      0.00000000
      4.34000000	     13.44342224	    -44.68229418	      8.42863234	     -0.09557334	      0.56392059	     -1.17910389	    128.27510964	    -45.70981913	     13.53981096	     91.53469122	      0.00000000	      9.14227226	      1.59758174	     10.11664501	      0.00000000	      0.00000000	    121.01333918	    -24.84477387	      3.39722453	     84.04877140	      0.00000000	     -9.75346874	      1.46692779	      2.50884468	      0.00000000	      0.00000000
      4.34500000	     14.25368344	    -44.75476807	      8.55906038	     -0.09558766	      0.56463613	     -1.17952665	    128.35612307	    -46.67422637	     13.35166920	     91.45480973	      0.00000000	      9.50365801	      1.59618755	     10.16080132	      0.00000000	      0.00000000	    121.11777597	    -23.97230991	      3.50053749	     83.91373238	      0.00000000	     -9.86699479	      1.46457092	      2.51043310	      0.00000000	      0.00000000
      4.35000000	     13.40293636	    -44.66595370	      8.42175755	     -0.09625524	      0.56577893	     -1.17918943	    127.89066923	    -45.62101131	     13.26667726	     91.18493460	      0.00000000	      9.11184766	      1.59147734	     10.03375117	      0.00000000	      0.00000000	    120.71681335	    -24.79063708	      3.26677720	     83.70734414	      0.00000000	     -9.75066353	      1.46096876	      2.42019893	      0.00000000	      0.00000000
      4.35500000	     14.30584875	    -44.72499195	      8.59396793	     -0.09622576	      0.56650814	     -1.17963102	    127.98846575	    -46.66362418	     13.11790252	     91.11032373	      0.00000000	      9.48821422	      1.59017513	     10.06369060	      0.00000000	      0.00000000	    120.80139038	    -23.83329143	      3.35625687	     83.55600471	      0.00000000	     -9.86534170	      1.45832739	      2.42356443	      0.00000000	      0.00000000
      4.36000000	     14.38448045	    -44.68890131	      8.60553115	     -0.09648178	      0.56742334	     -1.17969138	    127.78386873	    -46.72836592	     12.98821859	     90.94733693	      0.00000000	      9.47947471	      1.58733048	     10.02178220	      0.00000000	      0.00000000	    120.63722459	    -23.70204770	      3.30969113	     83.38089875	      0.00000000	     -9.86476400	      1.45527122	      2.36687964	      0.00000000	      0.00000000
      4.36500000	     13.63992442	    -44.64910921	      8.51700775	     -0.09712756	      0.56847192	     -1.17935891	    127.43590600	    -45.75534932	     12.96143970	     90.69995711	      0.00000000	      9.07500013	      1.58301288	      9.90122331	      0.00000000	      0.00000000	    120.29985983	    -24.42564082	      3.08499796	     83.17608844	      0.00000000	     -9.74567134	      1.45169660	      2.29264615	      0.00000000	      0.00000000
      4.37000000	     14.43697402	    -44.73388937	      8.63967971	     -0.09704036	      0.56917967	     -1.17973979	    127.49835060	    -46.69573792	     12.76453687	     90.62942467	      0.00000000	      9.46082755	      1.58178186	      9.96154044	      0.00000000	      0.00000000	    120.41986632	    -23.58210226	      3.19279954	     83.04332013	      0.00000000	     -9.86285444	      1.44937936	      2.29921248	      0.00000000	      0.00000000
      4.37500000	     14.52369725	    -44.70062568	      8.67582976	     -0.09723565	      0.57003824	     -1.17980470	    127.32671359	    -46.75692513	     12.67176774	     90.48141893	      0.00000000	      9.45194648	      1.57919867	      9.93013575	      0.00000000	      0.00000000	    120.25300310	    -23.45278659	      3.13029056	     82.87481056	      0.00000000	     -9.86192671	      1.44643831	      2.25962684	      0.00000000	      0.00000000
      4.38000000	     13.62849821	    -44.64675404	      8.51381620	     -0.09782147	      0.57108285	     -1.17941506	    126.89924769	    -45.64568125	     12.60969199	     90.23280211	      0.00000000	      9.03038924	      1.57485949	      9.80541115	      0.00000000	      0.00000000	    119.89883233	    -24.30432278	      2.92466995	     82.69554404	      0.00000000	     -9.74205419	      1.44330952	      2.19768275	      0.00000000	      0.00000000
      4.38500000	     14.61365643	    -44.71233288	      8.72734622	     -0.09760897	      0.57168618	     -1.17986901	    127.04402567	    -46.75969335	     12.49315517	     90.19516201	      0.00000000	      9.42987401	      1.57420255	      9.86826282	      0.00000000	      0.00000000	    120.00852316	    -23.30004185	      3.01749608	     82.56252059	      0.00000000	     -9.86044984	      1.44098782	      2.19404171	      0.00000000	      0.00000000
